PathFileType	4	(X/Y/Z)	Patient4_TMGait_0pt5_02_left_13.trc.trc
DataRate	CameraRate	NumFrames	NumMarkers	Units	OrigDataRate	OrigDataStartFrame	OrigNumFrames
76.923076923077	76.923076923077	4	33	mm	76.923076923077	124	       141
Frame#	Time	Sacral			L.Shoulder			Chest			R.Shoulder			Neck			R.ASIS			L.ASIS			R.Thigh.Superior			R.Thigh.Lateral			R.Thigh.Inferior			R.Patella			L.Thigh.Superior			L.Thigh.Lateral			L.Thigh.Inferior			L.Patella			L.Shank.Superior			L.Shank.Lateral			L.Shank.Inferior			R.Shank.Superior			R.Shank.Lateral			R.Shank.Inferior			R.Heel			R.Midfoot.Superior			R.Midfoot.Lateral			R.Toe			L.Heel			L.Midfoot.Lateral			L.Midfoot.Superior			L.Toe			L.Elbow			L.Wrist			R.Elbow			R.Wrist			
		X1	Y1	Z1	X2	Y2	Z2	X3	Y3	Z3	X4	Y4	Z4	X5	Y5	Z5	X6	Y6	Z6	X7	Y7	Z7	X8	Y8	Z8	X9	Y9	Z9	X10	Y10	Z10	X11	Y11	Z11	X12	Y12	Z12	X13	Y13	Z13	X14	Y14	Z14	X15	Y15	Z15	X16	Y16	Z16	X17	Y17	Z17	X18	Y18	Z18	X19	Y19	Z19	X20	Y20	Z20	X21	Y21	Z21	X22	Y22	Z22	X23	Y23	Z23	X24	Y24	Z24	X25	Y25	Z25	X26	Y26	Z26	X27	Y27	Z27	X28	Y28	Z28	X29	Y29	Z29	X30	Y30	Z30	X31	Y31	Z31	X32	Y32	Z32	X33	Y33	Z33	

124	17.929000000000	606.543325160579	1009.526022883311	534.352266031635	773.923234602034	1431.887925300357	344.175409192784	891.917602094659	1355.306192528432	491.179347683067	831.742835386981	1428.563241581643	675.010257329119	791.082627756195	1490.235886589601	494.837404744467	837.421756804788	934.820206775022	633.534735407335	805.641246167777	951.038280623087	360.244671765105	831.906077272945	722.358906803894	605.514475265685	727.168817993077	630.407573704864	667.189589084012	784.368394335039	564.167640413568	585.371892678783	765.582381340976	479.716465795775	587.700748983363	876.784238580951	765.433304385420	393.743151003699	821.005953594401	637.779299464600	320.966298582349	921.511214964631	577.297153732498	384.357756628038	944.973379269226	510.799708964734	383.882186123599	927.713234433632	438.761890911767	373.235836105033	859.662017087440	310.154471323776	322.657618541646	943.001786631511	210.072806892534	381.077734063510	727.115458087731	397.465314472216	592.661889031100	645.599032411754	301.336154008139	652.708180522327	673.984395039369	204.097659137741	586.015875933919	523.055222191985	46.691600153863	552.615970033812	695.876248521750	96.615265558497	588.285130699718	606.450857167851	37.023684754650	626.395385964417	814.754330746193	39.363810716994	615.558375652558	851.167978596702	37.379930188219	417.795859515863	926.981879836006	39.385476305436	339.286776281805	1001.675361709075	110.782731227089	363.376853096236	1133.837270909182	73.841379384309	339.805145338341	640.457880351282	1100.284117208959	247.594056846568	633.831527421925	839.233825460355	258.109893117450	966.959911357550	1115.125642085271	778.874633589597	1205.284654535711	1163.822499921587	713.112836475019	
125	17.942000000000	607.567875010379	1008.150229672650	532.261688910044	773.905513766405	1430.636863405928	341.895662578254	891.706549583113	1354.769826722941	489.457502176979	830.473576442676	1427.834642692880	673.104599114308	790.429794498706	1489.349499026783	492.567516142376	838.323652726192	934.127351006519	632.468064323536	807.239549965177	949.619234176703	359.106467786423	832.429753633532	721.398678336568	605.017440493788	726.685496363059	629.881143029184	666.245405200478	783.820949948970	563.190758154738	584.786892980849	764.127844818413	478.462727385065	586.985623255288	877.794695641956	763.010599276134	392.430352481270	820.299480062024	635.687822102796	320.602374713531	921.111376655723	575.247067776793	383.681452747075	943.506061754774	508.203251249908	383.734512727399	926.034438642359	436.015455818753	373.153835281614	856.774164953529	307.902897399899	323.018937542905	939.027243458431	207.209938397450	381.743267942094	724.743832003631	396.544296281586	592.097692173519	641.919149710041	301.544444403196	652.351200103354	669.121957992547	203.819171691959	585.897055709890	516.616256704727	47.395070285562	552.840715210641	689.645579279392	96.711587392566	588.504920160839	600.024263964766	37.265246315081	626.562415040379	808.317641278752	39.144623967430	615.658002536048	844.434486618776	36.851379997941	418.310040224872	920.378531379531	37.719899363353	339.843320986037	996.748468953053	106.967644400229	364.715643092412	1128.246142047410	66.919592919135	341.097515077471	641.713820974274	1098.288666740544	246.032102403278	635.390136773904	837.208778475059	256.738804185139	963.951670983844	1112.967776236401	777.314738349429	1203.678631327744	1158.351568088176	713.120680441091	
126	17.955000000000	608.508364184255	1006.964016196252	530.116493579347	774.087788296480	1429.485154500542	339.526809783499	891.625300245420	1354.300520010994	487.688703655597	829.357610553318	1427.258463476755	671.118493744722	789.987201254696	1488.594982239611	490.179527466472	839.135964066265	933.458495966132	631.256015349499	808.715352448296	948.503699825052	357.842356465139	833.129460705994	720.536050452805	604.247400924130	726.608765551813	629.333967580292	665.073745977168	783.773053312763	562.254536891004	583.946545101677	763.207732587811	477.152945898574	586.033310680465	878.869406378535	761.103650639962	391.141398956301	820.103991200664	634.179479895214	320.079068994652	921.084660597691	573.766791893954	383.069375879496	942.392436221312	506.093475935984	383.590665350668	924.724599407330	433.743671913975	373.010906453232	854.337153123883	306.204174680742	323.048983206873	935.213771495333	204.827302288971	382.251124506548	722.831888044295	395.571329680175	591.368992476825	638.606363378046	301.832082711651	651.871163646043	664.476356933114	203.583589431248	585.715636359697	510.233269906468	48.335781357403	553.092556926892	683.510079971065	96.852252658741	588.723939782644	593.650069673828	37.623392847281	626.754980299527	801.926899282705	38.903226438613	615.756942310806	837.815391823622	36.601049411416	418.618023306704	913.885462339347	36.499798395709	340.197501656294	991.752187045943	103.770948796109	365.850219767223	1122.627024888005	60.951934238885	342.201086552556	643.729445220148	1096.123487135154	244.277045251992	637.735200623500	835.009822288548	255.031157308138	960.239496764622	1110.553953227750	775.775076666781	1201.692157150728	1151.492903645373	713.458660492818	
127	17.968000000000	609.346590361022	1006.026279043658	527.923563630633	774.440627068824	1428.502047692878	337.115142533146	891.673277836497	1353.933756654743	485.879444924679	828.460411776906	1426.876589956063	669.071170917046	789.761849655882	1488.018337004990	487.720732683577	839.838903536455	932.864759269519	629.870152536211	810.036834890312	947.755778949308	356.415639168940	833.917958222967	719.819646543775	603.169277881357	726.882037552564	628.815379972002	663.688808309982	784.164624239518	561.401551120576	582.870424248201	762.799866932346	475.818569166948	584.911008097973	880.046514174365	759.858814958139	389.908358980753	820.531941076245	633.319641551861	319.401103164708	921.494952987604	572.900967342138	382.521755759279	941.710225644599	504.511795326064	383.451726098992	923.823985488755	431.980033752793	372.837376184308	852.381254674252	305.108921088545	322.746051971161	931.545823720362	202.962816949415	382.614011478955	721.334508500166	394.593551234071	590.518375331334	635.624131550595	302.242023580768	651.290305526998	660.043656897869	203.440647902529	585.501366466501	503.922579098902	49.569507250504	553.371847256508	677.489849628310	97.045503705075	588.943239867677	587.337692400941	38.126302058641	626.971097668280	795.584137740282	38.641202544241	615.850089234419	831.353687876271	36.582776924496	418.754854623859	907.530919121334	35.706159741391	340.373695624178	986.654004543354	101.271928590182	366.744247147722	1116.977989451516	56.137020076100	343.058610349383	646.471664538465	1093.885652613587	242.336643461395	640.901089473306	832.730762114306	252.967522098260	955.855593919626	1107.958854271509	774.233308145044	1199.285359837138	1143.253289236160	714.127119080885	
